<svg xmlns="http://www.w3.org/2000/svg" width="32" height="32" viewBox="0 0 32 32">
  <path class="icon_delete" d="M16 29c-7.2 0-13-5.8-13-13s5.8-13 13-13 13 5.8 13 13-5.8 13-13 13zM16 6c-5.5 0-10 4.5-10 10s4.5 10 10 10c5.5 0 10-4.5 10-10s-4.5-10-10-10zM20.5 19.5l-1 1c-0.2 0.2-0.5 0.2-0.7 0l-2.9-2.9-2.9 2.9c-0.2 0.2-0.5 0.2-0.7 0l-1-1c-0.2-0.2-0.2-0.5 0-0.7l2.9-2.9-2.9-2.9c-0.2-0.2-0.2-0.5 0-0.7l1-1c0.2-0.2 0.5-0.2 0.7 0l2.9 2.9 2.9-2.9c0.2-0.2 0.5-0.2 0.7 0l1 1c0.2 0.2 0.2 0.5 0 0.7l-2.9 2.9 2.9 2.9c0.2 0.2 0.2 0.5 0 0.7z" />
</svg>
