<svg xmlns="http://www.w3.org/2000/svg" viewBox="0 0 124.6 27.1"><path d="M6 21.7c-0.9 0-1.8-0.2-2.7-0.7v4c0 0.8-0.1 1.3-0.4 1.6 -0.3 0.3-0.8 0.5-1.4 0.5H0.2L0 26.9V8.6l0.2-0.2h1C2 8.4 2.7 8.8 3 9.7c1-1 2.2-1.5 3.6-1.5 1.4 0 2.5 0.6 3.3 1.8 0.8 1.2 1.2 2.9 1.2 5 0 1-0.1 2-0.4 2.8 -0.3 0.8-0.6 1.5-1.1 2.1 -0.5 0.6-1 1-1.6 1.3C7.4 21.5 6.7 21.7 6 21.7zM5.7 10.9c-0.9 0-1.7 0.5-2.4 1.4v6c0.8 0.5 1.5 0.8 2.1 0.8 0.7 0 1.3-0.4 1.7-1.1 0.4-0.7 0.6-1.8 0.6-3.1 0-1.4-0.2-2.3-0.5-3C6.7 11.3 6.3 10.9 5.7 10.9z"/><path d="M17.1 11.2v10.3c-0.3 0.1-0.5 0.1-0.8 0.1 -0.3 0-0.6 0-0.9 0 -0.3 0-0.6 0-0.9 0 -0.3 0-0.6-0.1-0.8-0.1v-9c0-1-0.4-1.4-1.2-1.4h-0.3c-0.1-0.4-0.2-0.8-0.2-1.2 0-0.4 0.1-0.8 0.2-1.2 0.4 0 0.8-0.1 1.1-0.1s0.6 0 0.9 0h0.4c0.8 0 1.4 0.2 1.8 0.7C16.9 9.7 17.1 10.3 17.1 11.2zM13.2 3.5c0.4-0.2 1-0.3 1.7-0.3 0.4 0 0.8 0 1.1 0.1 0.3 0.1 0.5 0.2 0.6 0.2 0.1 0.1 0.2 0.3 0.2 0.5 0 0.3 0.1 0.5 0.1 0.8 -0.1 0.9-0.2 1.4-0.3 1.5 -0.2 0.1-0.7 0.2-1.6 0.3 -1 0-1.5-0.2-1.7-0.4C13 6 12.9 5.5 12.9 4.9 12.9 4.4 13 3.9 13.2 3.5z"/><path d="M26.6 13.9c0-1-0.1-1.8-0.4-2.4s-0.8-0.8-1.5-0.8c-1.4 0-2.1 1.4-2.1 4.3 0 1.4 0.2 2.5 0.6 3.1 0.4 0.6 1 1 1.9 1 0.4 0 0.9-0.1 1.5-0.3 0.5-0.2 1.1-0.5 1.6-0.9 0.3 0.2 0.5 0.5 0.8 0.8 0.3 0.4 0.4 0.8 0.5 1.1 -0.6 0.6-1.3 1.1-2.2 1.4s-1.8 0.5-2.7 0.5c-1.8 0-3.2-0.6-4.1-1.9 -0.9-1.2-1.4-2.9-1.4-5.1 0-1.1 0.2-2.1 0.5-2.9s0.7-1.5 1.2-2.1c0.5-0.6 1.1-1 1.8-1.2 0.7-0.3 1.4-0.4 2.1-0.4 0.8 0 1.5 0.1 2.1 0.3 0.6 0.2 1.1 0.5 1.6 0.9s0.8 0.8 1 1.3 0.4 1 0.4 1.6 -0.1 1-0.4 1.3C29 13.9 28.5 14 28 14 27.5 14 27 14 26.6 13.9z"/><path d="M30.5 20.5c0-0.4 0.1-0.8 0.3-1.3 0.2-0.5 0.4-0.8 0.7-1.1 1.4 0.7 2.6 1.1 3.6 1.1 0.6 0 1-0.1 1.4-0.3 0.4-0.2 0.5-0.5 0.5-0.9 0-0.6-0.5-1.1-1.4-1.5l-1.5-0.5c-2.2-0.8-3.3-2.1-3.3-3.8 0-0.6 0.1-1.2 0.4-1.7 0.2-0.5 0.6-0.9 1-1.3s0.9-0.6 1.5-0.8c0.6-0.2 1.2-0.3 2-0.3 0.3 0 0.7 0 1.1 0.1 0.4 0.1 0.8 0.1 1.2 0.2s0.8 0.2 1.2 0.3c0.4 0.1 0.7 0.3 1 0.4 0 0.4-0.1 0.9-0.3 1.4 -0.2 0.5-0.4 0.8-0.7 1 -1.4-0.6-2.6-0.9-3.6-0.9 -0.5 0-0.8 0.1-1.1 0.3 -0.3 0.2-0.4 0.5-0.4 0.8 0 0.5 0.4 1 1.3 1.3l1.6 0.6c1.1 0.4 2 0.9 2.5 1.6s0.8 1.5 0.8 2.4c0 1.2-0.5 2.2-1.4 3 -0.9 0.7-2.2 1.1-4 1.1C33.5 21.8 32 21.4 30.5 20.5z"/><path d="M72.1 20.5c0-0.4 0.1-0.8 0.3-1.3 0.2-0.5 0.4-0.8 0.7-1.1 1.4 0.7 2.6 1.1 3.6 1.1 0.6 0 1-0.1 1.4-0.3 0.4-0.2 0.5-0.5 0.5-0.9 0-0.6-0.5-1.1-1.4-1.5l-1.5-0.5c-2.2-0.8-3.3-2.1-3.3-3.8 0-0.6 0.1-1.2 0.4-1.7 0.2-0.5 0.6-0.9 1-1.3s0.9-0.6 1.5-0.8c0.6-0.2 1.2-0.3 2-0.3 0.3 0 0.7 0 1.1 0.1 0.4 0.1 0.8 0.1 1.2 0.2s0.8 0.2 1.2 0.3c0.4 0.1 0.7 0.3 1 0.4 0 0.4-0.1 0.9-0.3 1.4 -0.2 0.5-0.4 0.8-0.7 1 -1.4-0.6-2.6-0.9-3.6-0.9 -0.5 0-0.8 0.1-1.1 0.3 -0.3 0.2-0.4 0.5-0.4 0.8 0 0.5 0.4 1 1.3 1.3l1.6 0.6c1.1 0.4 2 0.9 2.5 1.6s0.8 1.5 0.8 2.4c0 1.2-0.5 2.2-1.4 3 -0.9 0.7-2.2 1.1-4 1.1C75.1 21.8 73.6 21.4 72.1 20.5z"/><path d="M91.4 8.5c0.1 0.4 0.2 0.8 0.2 1.2 0 0.4-0.1 0.8-0.2 1.2l-3.1-0.1v6.8c0 0.8 0.4 1.2 1.1 1.2H91c0.2 0.5 0.3 1 0.3 1.5 0 0.5 0 0.8-0.1 0.9 -1.1 0.2-2.1 0.2-3.1 0.2 -2.1 0-3.1-1.1-3.1-3.2v-7.5l-2 0c-0.1-0.3-0.1-0.8-0.1-1.2 0-0.5 0-0.9 0.1-1.2l2 0V6.7c0-0.8 0.1-1.3 0.4-1.6 0.3-0.3 0.8-0.5 1.4-0.5h1.3l0.2 0.2v3.8L91.4 8.5z"/><path d="M93.5 17.2v-5.7c0-1.1-0.2-1.9-0.5-2.5 0.6-0.5 1.2-0.7 2-0.7 0.8 0 1.3 0.2 1.5 0.5 0.3 0.4 0.4 0.9 0.4 1.6v6.1c0 0.7 0.1 1.3 0.3 1.6s0.5 0.5 1.1 0.5c0.9 0 1.8-0.4 2.6-1.2V8.5c0.4-0.1 0.9-0.1 1.7-0.1 0.7 0 1.3 0 1.7 0.1v9.2c0 1 0.2 1.7 0.7 2.2 -0.1 0.3-0.2 0.6-0.5 1 -0.2 0.3-0.4 0.6-0.7 0.8 -1.3-0.1-2.1-0.7-2.6-1.8 -1.3 1.2-2.7 1.9-4.1 1.9 -1.2 0-2-0.4-2.7-1.2C93.8 19.6 93.5 18.6 93.5 17.2z"/><path d="M108.2 21.4V10.9l-2.2 0c-0.1-0.2-0.1-0.4-0.1-0.6 0-0.2 0-0.4 0-0.6 0-0.2 0-0.4 0-0.6 0-0.2 0.1-0.4 0.1-0.6l2.1 0c-0.1-0.9-0.2-1.6-0.2-2 0-0.6 0.1-1.2 0.3-1.7s0.5-1 0.9-1.4c0.4-0.4 0.8-0.7 1.3-0.9 0.5-0.2 1.1-0.3 1.7-0.3 1.2 0 2.5 0.2 3.7 0.7 0 1-0.3 1.7-0.8 2.3 -1-0.2-1.7-0.4-2.1-0.4 -1.2 0-1.8 0.7-1.8 2 0 0.6 0.1 1.2 0.2 1.8l3.5-0.1c0 0.2 0.1 0.4 0.1 0.6 0 0.2 0 0.4 0 0.6 0 0.2 0 0.4 0 0.6s-0.1 0.4-0.1 0.6l-3.3-0.1v10.5c-0.3 0.1-0.6 0.1-0.8 0.1 -0.3 0-0.5 0-0.8 0s-0.6 0-0.8 0C108.8 21.5 108.5 21.5 108.2 21.4z"/><path d="M117 21.4V10.9l-2.2 0c-0.1-0.2-0.1-0.4-0.1-0.6 0-0.2 0-0.4 0-0.6 0-0.2 0-0.4 0-0.6 0-0.2 0.1-0.4 0.1-0.6l2.1 0c-0.1-0.9-0.2-1.6-0.2-2 0-0.6 0.1-1.2 0.3-1.7s0.5-1 0.9-1.4c0.4-0.4 0.8-0.7 1.3-0.9 0.5-0.2 1.1-0.3 1.7-0.3 1.2 0 2.5 0.2 3.7 0.7 0 1-0.3 1.7-0.8 2.3 -1-0.2-1.7-0.4-2.1-0.4 -1.2 0-1.8 0.7-1.8 2 0 0.6 0.1 1.2 0.2 1.8l3.5-0.1c0 0.2 0.1 0.4 0.1 0.6 0 0.2 0 0.4 0 0.6 0 0.2 0 0.4 0 0.6s-0.1 0.4-0.1 0.6l-3.3-0.1v10.5c-0.3 0.1-0.6 0.1-0.8 0.1 -0.3 0-0.5 0-0.8 0s-0.6 0-0.8 0C117.5 21.5 117.3 21.5 117 21.4z"/><path d="M56.9 0c-7 0-12.7 5.7-12.7 12.7s5.7 12.7 12.7 12.7 12.7-5.7 12.7-12.7S63.9 0 56.9 0zM65.2 15c-0.3 0.5-0.8 0.7-1.5 0.9 -0.1 0-0.2 0.1-0.2 0.2 0 0.3 0 0.6 0 0.7 0 1.6-0.6 2.9-1.6 3.9 -1.3 1.2-3.2 1.8-5.6 1.8 -2.4 0-4.2-0.5-5.3-1.5 -1.3-1.1-1.9-2.5-1.9-4.2 0-1.5 0.5-2.7 1.5-3.8 1-1.1 2.4-1.8 4.1-2 0.1 0 0.2-0.1 0.2-0.2s-0.1-0.2-0.1-0.2C54 10.3 53.4 10 53 9.7c-0.8-0.6-1.2-1.5-1.2-2.7 0-1.2 0.4-2.1 1.3-2.8 1-0.8 2.3-1.2 4-1.2 1.5 0 2.7 0.4 3.6 1.1 0.4 0.3 0.6 0.6 0.9 1.1 0.2 0.4 0.3 0.9 0.3 1.3 0 0.7-0.2 1.2-0.6 1.6 -0.4 0.4-0.9 0.6-1.6 0.6 -0.5 0-0.9-0.1-1.2-0.4 -0.3-0.2-0.5-0.5-0.5-0.9 0-0.4 0.2-0.7 0.5-0.9 0.1 0.1 0.3 0.2 0.5 0.2 0.2 0 0.4-0.1 0.5-0.3 0.1-0.2 0.2-0.4 0.2-0.6 0-0.4-0.2-0.7-0.5-1 -0.3-0.3-0.7-0.4-1.1-0.4 -0.6 0-1.1 0.3-1.5 0.8C56.2 5.8 56 6.4 56 7.1c0 0.6 0.2 1.2 0.5 1.7 0.3 0.5 0.8 0.9 1.3 1.1 0.4 0.2 0.9 0.3 1.3 0.3 0.4 0.1 1 0.1 1.8 0.1v1.2c-0.8 0-1.3 0-1.6 0.1 -0.3 0-0.7 0.1-1.1 0.3 -0.7 0.3-1.4 0.8-1.8 1.5 -0.5 0.7-0.7 1.5-0.7 2.3 0 1.1 0.4 2 1.1 2.7 0.6 0.5 1.2 0.8 1.9 0.8 0.7 0 1.2-0.2 1.7-0.6 0.5-0.4 0.7-1 0.7-1.6 0-0.5-0.2-0.9-0.5-1.3 -0.3-0.4-0.7-0.5-1.2-0.5 -0.4 0-0.9 0.2-1.4 0.6C58 15.6 58 15.4 58 15.2c0-0.7 0.2-1.2 0.6-1.6 0.4-0.4 1-0.6 1.7-0.6 0.3 0 0.9 0 1.8 0.1 0.5 0 0.9 0.1 1.2 0.1 0.8 0 1.6-0.2 2.4-0.5 0 0.2 0 0.3 0 0.4C65.8 13.8 65.6 14.4 65.2 15z"/></svg>
